<?xml version="1.0" encoding="UTF-8"?><svg id="Calque_2" xmlns="http://www.w3.org/2000/svg" viewBox="0 0 4.34 4.67"><defs><style>.cls-1,.cls-2{fill:#fff;}.cls-2{stroke:#fff;stroke-miterlimit:10;stroke-width:.03px;}</style></defs><g id="Calque_1-2"><path id="rond_droit" class="cls-2" d="m2.79,1.94c-.01-.07-.04-.14-.07-.19-.1-.16-.27-.26-.46-.26-.3,0-.54.24-.54.54s.24.54.54.54c.11,0,.22-.03.31-.09.06-.04.11-.09.15-.15.06-.09.09-.19.09-.3,0-.03,0-.06,0-.09Zm-.3.34c-.06.06-.14.09-.23.09-.19,0-.35-.15-.35-.35s.15-.35.35-.35c.14,0,.27.09.32.21.02.04.03.09.03.14,0,.1-.04.19-.11.26Z"/><rect id="barre_T" class="cls-1" x=".96" width=".42" height="1.85"/><path id="fut_T" class="cls-1" d="m3.61.46c0,.48-.26.81-.83.81H.2v-.49h2.47c.36,0,.48-.17.48-.44,0-.12-.02-.22-.07-.32h.44c.07.15.09.28.09.44Z"/><rect id="barre_F" class="cls-1" x=".96" y="2.03" width=".42" height="1.79"/><path id="fut_F" class="cls-1" d="m3.56,2.76v.49H.77c-.5,0-.77-.27-.77-.76,0-.15.02-.26.06-.36h.4c-.03.08-.04.17-.04.25,0,.23.11.37.36.37h2.78Z"/><path id="L" class="cls-1" d="m3.56,4.67H.04v-.5h3.51v.5Z"/><path id="milieu_lunette" class="cls-2" d="m3.03,1.65c-.11,0-.22.03-.31.09.04.06.06.12.07.19.06-.06.14-.09.23-.09.08,0,.16.03.22.08.01-.07.04-.13.08-.19-.08-.05-.18-.08-.29-.08Z"/><path id="rond_gauche" class="cls-2" d="m3.78,1.49c-.19,0-.36.1-.46.25-.04.06-.06.12-.08.19,0,.03-.01.07-.01.1,0,.12.04.23.1.32.04.06.09.1.15.14.08.05.18.08.29.08.3,0,.54-.24.54-.54s-.24-.54-.54-.54Zm0,.89c-.08,0-.16-.03-.22-.08-.08-.06-.13-.16-.13-.27,0-.06.01-.11.04-.15.06-.11.17-.19.31-.19.19,0,.35.15.35.35s-.16.35-.35.35Z"/></g></svg>