<?xml version="1.0" encoding="UTF-8"?><svg id="Calque_1" xmlns="http://www.w3.org/2000/svg" viewBox="0 0 200 200"><defs><style>.cls-1{stroke-width:1.18px;}.cls-1,.cls-2{stroke:#000;stroke-miterlimit:10;}.cls-2{fill:#fff;stroke-width:1.1px;}</style></defs><rect class="cls-2" x="-10.47" y="-12.66" width="225.26" height="225.26"/><path id="rond_droit" class="cls-1" d="m123.45,84.26c-.45-2.76-1.43-5.34-2.84-7.63-3.76-6.14-10.52-10.25-18.24-10.25-11.78,0-21.36,9.58-21.36,21.36s9.58,21.36,21.36,21.36c4.45,0,8.6-1.37,12.02-3.71,2.26-1.54,4.21-3.51,5.73-5.78,2.28-3.4,3.61-7.48,3.61-11.87,0-1.19-.1-2.35-.29-3.48h0Zm-11.89,13.5c-2.42,2.22-5.64,3.57-9.18,3.57-7.51,0-13.59-6.08-13.59-13.59s6.08-13.59,13.59-13.59c5.61,0,10.43,3.4,12.51,8.26.7,1.64,1.09,3.44,1.09,5.33,0,3.97-1.7,7.54-4.41,10.02h0Z"/><rect id="barre_T" x="51.61" y="7.97" width="16.53" height="72.66"/><path id="fut_T" d="m155.41,26.23c0,18.84-10.19,31.91-32.68,31.91H21.43v-19.41h96.88c14.03,0,19.03-6.73,19.03-17.11,0-4.61-.77-8.65-2.69-12.69h17.11c2.69,5.96,3.65,11.15,3.65,17.3h0Z"/><rect id="barre_F" x="51.61" y="87.74" width="16.53" height="70.35"/><path id="fut_F" d="m153.49,116.19v19.42H44.12c-19.61,0-30.37-10.57-30.37-29.79,0-5.77.96-10.38,2.5-14.22h15.76c-1.34,3.08-1.73,6.54-1.73,10,0,9.23,4.23,14.61,14.03,14.61h109.18v-.02Z"/><path id="L" d="m153.49,191.35H15.48v-19.61h138.01v19.61h0Z"/><path id="milieu_lunette" class="cls-1" d="m132.63,72.91c-4.45,0-8.6,1.37-12.02,3.71,1.41,2.3,2.39,4.88,2.84,7.63,2.42-2.21,5.64-3.57,9.19-3.57,3.2,0,6.14,1.11,8.46,2.95.52-2.68,1.55-5.18,2.97-7.41-3.3-2.1-7.23-3.32-11.43-3.32h-.01Z"/><path id="rond_gauche" class="cls-1" d="m162.06,66.38c-7.54,0-14.19,3.93-17.99,9.86-1.43,2.22-2.45,4.72-2.97,7.41-.26,1.33-.4,2.7-.4,4.1,0,4.7,1.53,9.06,4.12,12.59,1.58,2.16,3.56,4.02,5.82,5.45,3.31,2.1,7.23,3.32,11.43,3.32,11.78,0,21.37-9.58,21.37-21.36s-9.59-21.36-21.37-21.36h-.01Zm0,34.94c-3.2,0-6.14-1.1-8.45-2.96-3.13-2.49-5.13-6.33-5.13-10.63,0-2.17.51-4.23,1.42-6.05,2.22-4.47,6.84-7.55,12.17-7.55,7.5,0,13.59,6.08,13.59,13.59s-6.09,13.59-13.59,13.59h0Z"/></svg>