<?xml version="1.0" encoding="UTF-8"?><svg id="Calque_1" xmlns="http://www.w3.org/2000/svg" viewBox="0 0 200 200"><defs><style>.cls-1{fill:#fff;stroke:#000;stroke-miterlimit:10;stroke-width:1.1px;}</style></defs><rect class="cls-1" x="-10.47" y="-12.66" width="225.26" height="225.26"/><rect id="barre_T" x="51.61" y="7.97" width="16.53" height="72.66"/><path id="fut_T" d="m155.41,26.23c0,18.84-10.19,31.91-32.68,31.91H21.43v-19.41h96.88c14.03,0,19.03-6.73,19.03-17.11,0-4.61-.77-8.65-2.69-12.69h17.11c2.69,5.96,3.65,11.15,3.65,17.3h0Z"/><rect id="barre_F" x="51.61" y="87.74" width="16.53" height="70.35"/><path id="fut_F" d="m153.49,116.19v19.42H44.12c-19.61,0-30.37-10.57-30.37-29.79,0-5.77.96-10.38,2.5-14.22h15.76c-1.34,3.08-1.73,6.54-1.73,10,0,9.23,4.23,14.61,14.03,14.61h109.18v-.02Z"/><path id="L" d="m153.49,191.35H15.48v-19.61h138.01v19.61h0Z"/></svg>