<?xml version="1.0" encoding="UTF-8"?><svg id="Calque_2" xmlns="http://www.w3.org/2000/svg" viewBox="0 0 1023.18 1101.96"><defs><style>.cls-1{stroke:#000;stroke-miterlimit:10;stroke-width:7.1px;}</style></defs><g id="rond_droit"><path id="rond_droit-2" class="cls-1" d="m659.23,458.46c-2.7-16.58-8.61-32.09-17.06-45.88-22.57-36.9-63.24-61.57-109.6-61.57-70.78,0-128.36,57.58-128.36,128.37s57.58,128.36,128.36,128.36c26.76,0,51.66-8.22,72.24-22.3,13.58-9.28,25.28-21.08,34.46-34.74,13.69-20.41,21.67-44.97,21.67-71.32,0-7.13-.58-14.12-1.72-20.92Zm-71.47,81.13c-14.53,13.32-33.92,21.46-55.18,21.46-45.11,0-81.67-36.56-81.67-81.67s36.56-81.69,81.67-81.69c33.72,0,62.68,20.45,75.15,49.63,4.2,9.86,6.53,20.69,6.53,32.06,0,23.83-10.21,45.28-26.5,60.21Z"/></g><g id="Barre_T"><rect id="barre_T" x="227.54" width="99.34" height="436.62"/></g><g id="fut_T"><path id="fut_T-2" d="m851.29,109.74c0,113.19-61.22,191.74-196.35,191.74H46.2v-116.66h582.16c84.33,0,114.35-40.42,114.35-102.81,0-27.71-4.62-51.97-16.18-76.23h102.81c16.18,35.81,21.94,67,21.94,103.96Z"/></g><g id="barre_F"><rect id="barre_F-2" x="227.54" y="479.38" width="99.34" height="422.75"/></g><g id="fut_F"><path id="fut_F-2" d="m839.74,650.32v116.67H182.5c-117.82,0-182.5-63.53-182.5-179.04,0-34.66,5.77-62.38,15.01-85.48h94.71c-8.08,18.48-10.4,39.27-10.4,60.07,0,55.44,25.42,87.78,84.33,87.78h656.09Z"/></g><g id="L"><path id="L-2" d="m839.74,1101.96H10.39v-117.82h829.35v117.82Z"/></g><g id="lunette_milieu"><path id="milieu_lunette" class="cls-1" d="m714.42,390.26c-26.76,0-51.66,8.24-72.25,22.31,8.45,13.79,14.36,29.3,17.06,45.88,14.53-13.31,33.9-21.46,55.2-21.46,19.22,0,36.9,6.65,50.84,17.74,3.12-16.12,9.29-31.15,17.85-44.5-19.86-12.63-43.45-19.97-68.69-19.97Z"/></g><g id="rond_gauche"><path id="rond_gauche-2" class="cls-1" d="m891.24,351c-45.34,0-85.29,23.64-108.13,59.23-8.56,13.35-14.73,28.38-17.85,44.5-1.58,7.98-2.4,16.21-2.4,24.64,0,28.24,9.18,54.41,24.73,75.64,9.49,13,21.38,24.13,34.97,32.77,19.87,12.63,43.45,19.96,68.69,19.96,70.78,0,128.39-57.58,128.39-128.36s-57.61-128.37-128.39-128.37Zm0,210.05c-19.2,0-36.87-6.63-50.81-17.77-18.81-14.94-30.85-38.01-30.85-63.9,0-13.07,3.07-25.4,8.52-36.33,13.35-26.89,41.11-45.35,73.14-45.35,45.1,0,81.69,36.56,81.69,81.69s-36.59,81.67-81.69,81.67Z"/></g></svg>